<svg width="371" height="258" viewBox="0 0 371 258" fill="none" xmlns="http://www.w3.org/2000/svg">
<path d="M60 191.661L61.0168 190.558L60 191.661ZM370.143 246.633C370.68 246.001 370.603 245.055 369.972 244.518L359.686 235.775C359.055 235.238 358.108 235.315 357.572 235.946C357.035 236.577 357.112 237.524 357.743 238.06L366.886 245.833L359.114 254.976C358.577 255.607 358.654 256.553 359.285 257.09C359.916 257.626 360.863 257.55 361.4 256.919L370.143 246.633ZM2 0.999965C0.500126 0.980311 0.500104 0.981155 0.500087 0.982515C0.500098 0.983657 0.500056 0.985533 0.500048 0.987814C0.499971 0.992376 0.499885 0.998995 0.499788 1.00766C0.499594 1.02498 0.499329 1.05049 0.499022 1.08406C0.498378 1.15121 0.497536 1.25065 0.496763 1.38156C0.495187 1.64337 0.493857 2.03106 0.494659 2.53804C0.496233 3.55198 0.506432 5.04313 0.54066 6.95871C0.609146 10.7897 0.773913 16.3193 1.15888 23.1251C1.92863 36.7342 3.57959 55.459 7.10574 75.9175C14.1415 116.739 28.7036 164.846 58.9832 192.764L61.0168 190.558C31.5202 163.362 17.0823 116.139 10.0622 75.408C6.56029 55.0905 4.91927 36.4839 4.15408 22.9557C3.77155 16.1928 3.60806 10.7021 3.54018 6.90509C3.50625 5.00666 3.49621 3.53184 3.49464 2.53332C3.49385 2.03406 3.4952 1.6539 3.49669 1.39941C3.49747 1.27217 3.49826 1.17635 3.49888 1.11278C3.49917 1.08099 3.49942 1.05726 3.4996 1.0417C3.49971 1.03392 3.49977 1.02818 3.4998 1.0245C3.49984 1.02266 3.49986 1.02144 3.49985 1.02051C3.49987 1.01981 3.49987 1.01962 2 0.999965ZM58.9832 192.764C78.9497 211.173 108.391 223.709 141.15 232.203C173.937 240.703 210.202 245.192 243.954 247.404C277.712 249.617 308.998 249.555 331.841 248.941C343.264 248.633 352.579 248.187 359.041 247.818C362.271 247.634 364.789 247.469 366.5 247.349C367.356 247.29 368.01 247.241 368.451 247.208C368.671 247.192 368.838 247.179 368.95 247.17C369.006 247.165 369.049 247.162 369.078 247.16C369.092 247.159 369.103 247.158 369.11 247.157C369.114 247.157 369.117 247.157 369.118 247.156C369.12 247.156 369.121 247.156 369 245.661C368.879 244.166 368.879 244.166 368.877 244.166C368.875 244.166 368.873 244.167 368.87 244.167C368.863 244.167 368.853 244.168 368.839 244.169C368.812 244.171 368.771 244.175 368.716 244.179C368.606 244.188 368.442 244.2 368.225 244.217C367.789 244.25 367.141 244.297 366.292 244.357C364.592 244.475 362.087 244.64 358.87 244.823C352.434 245.191 343.15 245.635 331.76 245.942C308.98 246.555 277.791 246.616 244.15 244.411C210.502 242.205 174.442 237.735 141.903 229.299C109.337 220.855 80.4524 208.478 61.0168 190.558L58.9832 192.764Z" fill="#1E1E1E"/>
</svg>
