<svg width="374" height="216" viewBox="0 0 374 216" fill="none" xmlns="http://www.w3.org/2000/svg">
<path d="M63.0004 149.661L64.0172 148.558L63.0004 149.661ZM373.144 204.633C373.68 204.001 373.603 203.055 372.972 202.518L362.686 193.775C362.055 193.238 361.108 193.315 360.572 193.946C360.035 194.577 360.112 195.524 360.743 196.06L369.886 203.833L362.114 212.976C361.578 213.607 361.654 214.553 362.286 215.09C362.917 215.626 363.863 215.55 364.4 214.919L373.144 204.633ZM1.99998 0.661138C0.500105 0.680695 0.500113 0.681514 0.500125 0.682691C0.500164 0.68356 0.500179 0.685095 0.500197 0.686832C0.500262 0.690306 0.500311 0.695208 0.500404 0.701527C0.500621 0.714166 0.500926 0.73248 0.501347 0.756404C0.50222 0.804251 0.50359 0.874542 0.505729 0.966771C0.509975 1.15123 0.517201 1.42344 0.529165 1.77935C0.553095 2.49117 0.595921 3.53788 0.671696 4.88705C0.823245 7.58526 1.10657 11.494 1.63401 16.3538C2.68876 26.0716 4.72067 39.602 8.63103 54.8656C16.4449 85.3661 31.7964 122.931 61.9836 150.764L64.0172 148.558C34.4282 121.277 19.2794 84.3419 11.5372 54.121C7.66947 39.0239 5.65933 25.6382 4.6165 16.0301C4.09521 11.2269 3.81588 7.3703 3.66697 4.71883C3.59252 3.39316 3.55068 2.36897 3.52749 1.6786C3.51587 1.33342 3.50894 1.07171 3.50491 0.89752C3.50292 0.810426 3.50163 0.745213 3.50087 0.702388C3.50047 0.680975 3.50022 0.665159 3.50006 0.655003C3.49998 0.649926 3.49991 0.646263 3.49989 0.644023C3.49988 0.642903 3.49987 0.642293 3.49987 0.641732C3.49986 0.641478 3.49986 0.641581 1.99998 0.661138ZM61.9836 150.764C81.95 169.173 111.392 181.709 144.151 190.203C176.938 198.703 213.202 203.192 246.954 205.404C280.713 207.617 311.998 207.555 334.842 206.941C346.265 206.633 355.58 206.187 362.041 205.818C365.272 205.634 367.789 205.469 369.501 205.349C370.356 205.29 371.01 205.242 371.451 205.208C371.671 205.192 371.838 205.179 371.951 205.17C372.007 205.165 372.049 205.162 372.078 205.16C372.092 205.159 372.103 205.158 372.11 205.157C372.114 205.157 372.117 205.157 372.119 205.157C372.121 205.156 372.122 205.156 372.001 203.661C371.879 202.166 371.879 202.166 371.877 202.166C371.876 202.166 371.873 202.167 371.87 202.167C371.863 202.167 371.853 202.168 371.84 202.169C371.812 202.171 371.771 202.175 371.716 202.179C371.607 202.188 371.442 202.2 371.225 202.217C370.79 202.25 370.142 202.297 369.292 202.357C367.593 202.475 365.088 202.64 361.87 202.823C355.435 203.191 346.15 203.635 334.761 203.942C311.98 204.555 280.791 204.616 247.15 202.411C213.503 200.205 177.442 195.735 144.904 187.299C112.337 178.855 83.4528 166.478 64.0172 148.558L61.9836 150.764Z" fill="#00C22B"/>
</svg>
