<svg width="408" height="80" viewBox="0 0 408 80" fill="none" xmlns="http://www.w3.org/2000/svg">
<path d="M350.5 1.99997L350.593 1.00435L350.5 1.99997ZM397.95 78.5754C398.261 79.0323 398.883 79.1511 399.339 78.8407L406.784 73.7838C407.241 73.4735 407.36 72.8516 407.05 72.3947C406.739 71.9379 406.117 71.8191 405.661 72.1294L399.043 76.6244L394.548 70.0067C394.237 69.5498 393.616 69.431 393.159 69.7413C392.702 70.0516 392.583 70.6736 392.893 71.1304L397.95 78.5754ZM0.499491 65C0.76077 65.9653 0.76172 65.965 0.76367 65.9645C0.765655 65.9639 0.768604 65.9631 0.772568 65.9621C0.780495 65.9599 0.792409 65.9567 0.808282 65.9524C0.840028 65.9438 0.887613 65.931 0.950829 65.9139C1.07726 65.8798 1.26621 65.8289 1.516 65.7618C2.01559 65.6275 2.75857 65.4284 3.73152 65.1689C5.67744 64.6499 8.54329 63.8897 12.2219 62.9249C19.5793 60.9954 30.1877 58.2478 43.19 54.9762C69.1953 48.4329 104.774 39.7939 143.071 31.4107C181.369 23.0271 222.375 14.9017 259.237 9.3833C296.125 3.86104 328.776 0.963847 350.406 2.99559L350.593 1.00435C328.7 -1.05209 295.839 1.88163 258.941 7.40534C222.017 12.9329 180.964 21.0686 142.643 29.457C104.321 37.8458 68.7206 46.49 42.702 53.0367C29.6924 56.3101 19.0775 59.0593 11.7146 60.9903C8.03311 61.9558 5.16457 62.7168 3.21613 63.2364C2.24192 63.4963 1.49772 63.6958 0.996933 63.8303C0.746541 63.8976 0.557002 63.9487 0.429991 63.983C0.366485 64.0001 0.318611 64.013 0.286579 64.0217C0.270562 64.026 0.258506 64.0292 0.250436 64.0314C0.246402 64.0325 0.243346 64.0333 0.241325 64.0339C0.239269 64.0345 0.238213 64.0347 0.499491 65ZM350.406 2.99559C365.624 4.42503 376.128 9.8141 383.363 17.0297C390.611 24.2589 394.65 33.3921 396.8 42.4116C398.95 51.4318 399.201 60.2909 398.91 66.9073C398.765 70.2124 398.485 72.9502 398.241 74.8585C398.12 75.8125 398.007 76.5587 397.926 77.0643C397.885 77.3171 397.852 77.5097 397.829 77.638C397.818 77.7021 397.809 77.7502 397.803 77.7817C397.801 77.7975 397.798 77.8091 397.797 77.8164C397.796 77.8201 397.796 77.8228 397.796 77.8244C397.795 77.8251 397.795 77.8255 397.795 77.8259C397.795 77.826 397.795 77.8259 398.777 78.0135C399.76 78.2011 399.76 78.2005 399.76 78.1995C399.76 78.1988 399.76 78.1976 399.761 78.1963C399.761 78.1936 399.762 78.1898 399.763 78.185C399.765 78.1754 399.767 78.1615 399.77 78.1435C399.777 78.1074 399.787 78.0547 399.799 77.9858C399.823 77.8481 399.858 77.6457 399.9 77.3827C399.985 76.8569 400.101 76.0889 400.225 75.1115C400.475 73.1571 400.76 70.3637 400.908 66.9952C401.204 60.2645 400.953 51.2068 398.745 41.9478C396.538 32.6883 392.362 23.1803 384.775 15.6136C377.175 8.03349 366.221 2.47222 350.593 1.00435L350.406 2.99559Z" fill="#FFE500"/>
</svg>
