<svg width="453" height="100" viewBox="0 0 453 100" fill="none" xmlns="http://www.w3.org/2000/svg">
<path d="M344.5 1.5L344.5 3L344.5 1.5ZM438.819 98.9232C439.329 99.5754 440.272 99.69 440.924 99.1792L451.552 90.8548C452.205 90.344 452.319 89.4012 451.808 88.749C451.298 88.0968 450.355 87.9822 449.703 88.493L440.256 95.8925L432.856 86.4453C432.345 85.7931 431.402 85.6785 430.75 86.1894C430.098 86.7002 429.983 87.643 430.494 88.2952L438.819 98.9232ZM0.500057 67.9968C0.879262 69.4481 0.880145 69.4478 0.882032 69.4474C0.88395 69.4469 0.886811 69.4461 0.890616 69.4451C0.898287 69.4431 0.909793 69.4401 0.925166 69.4361C0.955849 69.4281 1.00191 69.4161 1.06306 69.4001C1.1854 69.3683 1.36825 69.3207 1.61004 69.2579C2.09362 69.1322 2.81293 68.9457 3.75513 68.7024C5.63954 68.2157 8.4156 67.5018 11.9809 66.5931C19.1114 64.7757 29.3987 62.1791 42.0235 59.0631C67.2737 52.831 101.871 44.5219 139.263 36.2131C214.119 19.5794 299.947 3.00051 344.5 3L344.5 1.88903e-08C299.553 0.000515042 213.381 16.6701 138.612 33.2845C101.191 41.5998 66.5701 49.9146 41.3047 56.1505C28.6716 59.2685 18.3769 61.867 11.2399 63.686C7.6714 64.5956 4.89231 65.3103 3.00497 65.7977C2.06134 66.0414 1.34063 66.2283 0.85568 66.3542C0.613192 66.4172 0.429668 66.465 0.306659 66.4971C0.24517 66.5131 0.198779 66.5252 0.167761 66.5333C0.152236 66.5373 0.140547 66.5404 0.132724 66.5424C0.128828 66.5434 0.125845 66.5442 0.123897 66.5447C0.121887 66.5453 0.120853 66.5455 0.500057 67.9968ZM344.5 3C371.079 2.9997 390.154 8.97706 403.844 17.8366C417.532 26.695 425.945 38.5037 431.085 50.3459C436.231 62.2015 438.091 74.0809 438.66 83.0155C438.944 87.4784 438.905 91.1944 438.795 93.7886C438.741 95.0854 438.669 96.1009 438.61 96.7882C438.581 97.1319 438.556 97.3933 438.538 97.5668C438.529 97.6536 438.522 97.7183 438.517 97.7603C438.515 97.7813 438.513 97.7966 438.512 97.8061C438.511 97.8109 438.511 97.8142 438.511 97.8161C438.511 97.817 438.511 97.8173 438.51 97.8178C438.51 97.8177 438.511 97.8173 440 97.9983C441.489 98.1793 441.489 98.1781 441.489 98.1766C441.489 98.1756 441.489 98.1737 441.49 98.1717C441.49 98.1677 441.491 98.1622 441.491 98.1553C441.493 98.1414 441.495 98.1218 441.498 98.0964C441.504 98.0456 441.512 97.9719 441.522 97.8761C441.542 97.6844 441.569 97.404 441.6 97.0409C441.661 96.3146 441.736 95.2569 441.793 93.915C441.906 91.2319 441.946 87.4089 441.654 82.825C441.071 73.6659 439.162 61.4205 433.837 49.1514C428.505 36.8689 419.744 24.553 405.474 15.318C391.205 6.08431 371.536 -0.00030984 344.5 1.88903e-08L344.5 3Z" fill="#C20000"/>
</svg>
