<svg width="28" height="29" viewBox="0 0 28 29" fill="none" xmlns="http://www.w3.org/2000/svg">
<path d="M13.9867 0.75C6.62666 0.75 0.666664 6.91 0.666664 14.5C0.666664 22.09 6.62666 28.25 13.9867 28.25C21.36 28.25 27.3333 22.09 27.3333 14.5C27.3333 6.91 21.36 0.75 13.9867 0.75ZM23.2267 9H19.2933C18.876 7.297 18.2581 5.65311 17.4533 4.105C19.8855 4.9685 21.9349 6.70612 23.2267 9ZM14 3.555C15.1067 5.205 15.9733 7.03375 16.5467 9H11.4533C12.0267 7.03375 12.8933 5.205 14 3.555ZM3.68 17.25C3.46666 16.37 3.33333 15.4487 3.33333 14.5C3.33333 13.5513 3.46666 12.63 3.68 11.75H8.18666C8.08 12.6575 8 13.565 8 14.5C8 15.435 8.08 16.3425 8.18666 17.25H3.68ZM4.77333 20H8.70666C9.13333 21.7188 9.74666 23.3687 10.5467 24.895C8.11196 24.0362 6.06111 22.2974 4.77333 20V20ZM8.70666 9H4.77333C6.06111 6.70262 8.11196 4.96378 10.5467 4.105C9.7419 5.65311 9.12397 7.297 8.70666 9V9ZM14 25.445C12.8933 23.795 12.0267 21.9662 11.4533 20H16.5467C15.9733 21.9662 15.1067 23.795 14 25.445ZM17.12 17.25H10.88C10.76 16.3425 10.6667 15.435 10.6667 14.5C10.6667 13.565 10.76 12.6437 10.88 11.75H17.12C17.24 12.6437 17.3333 13.565 17.3333 14.5C17.3333 15.435 17.24 16.3425 17.12 17.25ZM17.4533 24.895C18.2533 23.3687 18.8667 21.7188 19.2933 20H23.2267C21.9349 22.2939 19.8855 24.0315 17.4533 24.895V24.895ZM19.8133 17.25C19.92 16.3425 20 15.435 20 14.5C20 13.565 19.92 12.6575 19.8133 11.75H24.32C24.5333 12.63 24.6667 13.5513 24.6667 14.5C24.6667 15.4487 24.5333 16.37 24.32 17.25H19.8133Z" fill="white"/>
</svg>
