<svg width="60" height="60" viewBox="0 0 60 60" fill="none" xmlns="http://www.w3.org/2000/svg">
<path d="M10 45C9.29168 45 8.69751 44.76 8.21751 44.28C7.73751 43.8 7.49834 43.2067 7.50001 42.5C7.50001 41.7917 7.74001 41.1975 8.22001 40.7175C8.70001 40.2375 9.29334 39.9983 10 40H50C50.7083 40 51.3025 40.24 51.7825 40.72C52.2625 41.2 52.5017 41.7933 52.5 42.5C52.5 43.2083 52.26 43.8025 51.78 44.2825C51.3 44.7625 50.7067 45.0017 50 45H10ZM10 32.5C9.29168 32.5 8.69751 32.26 8.21751 31.78C7.73751 31.3 7.49834 30.7067 7.50001 30C7.50001 29.2917 7.74001 28.6975 8.22001 28.2175C8.70001 27.7375 9.29334 27.4983 10 27.5H50C50.7083 27.5 51.3025 27.74 51.7825 28.22C52.2625 28.7 52.5017 29.2933 52.5 30C52.5 30.7083 52.26 31.3025 51.78 31.7825C51.3 32.2625 50.7067 32.5017 50 32.5H10ZM10 20C9.29168 20 8.69751 19.76 8.21751 19.28C7.73751 18.8 7.49834 18.2067 7.50001 17.5C7.50001 16.7917 7.74001 16.1975 8.22001 15.7175C8.70001 15.2375 9.29334 14.9983 10 15H50C50.7083 15 51.3025 15.24 51.7825 15.72C52.2625 16.2 52.5017 16.7933 52.5 17.5C52.5 18.2083 52.26 18.8025 51.78 19.2825C51.3 19.7625 50.7067 20.0017 50 20H10Z" fill="black"/>
</svg>
