<svg width="194" height="46" viewBox="0 0 194 46" fill="none" xmlns="http://www.w3.org/2000/svg">
<path d="M0.655 23.415C0.655 31.675 3.723 38.991 9.859 45.304H16.054C14.166 42.413 12.632 39.05 11.511 35.215C10.331 31.38 9.741 27.486 9.741 23.415C9.741 19.344 10.331 15.45 11.511 11.615C12.632 7.839 14.166 4.476 16.054 1.585H9.859C3.723 8.134 0.655 15.391 0.655 23.415ZM171.518 24.359C170.102 22.766 168.155 21.645 165.795 20.996C170.987 19.285 173.583 16.276 173.583 11.851V11.202C173.583 4.004 167.506 0.404997 155.411 0.404997H21.2451V42H34.2841V27.25H151.871C155.057 27.25 157.299 27.84 158.597 29.02C159.954 30.141 160.603 32.029 160.603 34.566V42H173.76V30.554C173.76 28.017 172.993 25.952 171.518 24.359ZM159.895 13.916C159.895 15.155 159.482 16.158 158.597 16.925C157.771 17.633 156.414 18.046 154.644 18.046H34.2841V9.845H154.644C156.414 9.845 157.771 10.258 158.597 10.966C159.482 11.733 159.895 12.677 159.895 13.857V13.916ZM184.342 45.304C190.537 38.991 193.605 31.675 193.605 23.415C193.605 15.627 190.537 8.311 184.342 1.585H178.206C180.094 4.476 181.569 7.839 182.749 11.615C183.87 15.45 184.46 19.344 184.46 23.415C184.46 27.486 183.87 31.38 182.749 35.215C181.569 39.05 180.094 42.413 178.206 45.304H184.342Z" fill="black"/>
</svg>
