<svg width="206" height="76" viewBox="0 0 206 76" fill="none" xmlns="http://www.w3.org/2000/svg">
<path d="M111.101 18.143C110.069 16.982 108.65 16.165 106.93 15.692C110.714 14.445 112.606 12.252 112.606 9.027V8.554C112.606 3.308 108.177 0.684998 99.362 0.684998H1.58V31H11.083V20.25H96.782C99.104 20.25 100.738 20.68 101.684 21.54C102.673 22.357 103.146 23.733 103.146 25.582V31H112.735V22.658C112.735 20.809 112.176 19.304 111.101 18.143ZM102.63 10.532C102.63 11.435 102.329 12.166 101.684 12.725C101.082 13.241 100.093 13.542 98.803 13.542H11.083V7.565H98.803C100.093 7.565 101.082 7.866 101.684 8.382C102.329 8.941 102.63 9.629 102.63 10.489V10.532ZM149.171 0.727998V14.66C149.171 15.735 148.999 16.724 148.698 17.627C148.397 18.573 147.881 19.476 147.107 20.379C146.376 21.282 145.258 21.97 143.796 22.486C142.291 23.002 140.528 23.303 138.464 23.303C136.357 23.303 134.551 23.002 133.046 22.486C131.498 21.97 130.38 21.282 129.649 20.379C128.918 19.476 128.402 18.573 128.101 17.627C127.8 16.724 127.628 15.735 127.628 14.66V0.727998H117.394V15.219C117.394 16.122 117.437 16.982 117.566 17.885C117.695 18.745 117.953 19.734 118.34 20.809C118.77 21.884 119.243 22.873 119.888 23.819C120.49 24.722 121.307 25.668 122.382 26.571C123.414 27.474 124.661 28.248 126.037 28.893C127.413 29.538 129.09 30.054 131.111 30.441C133.089 30.828 135.325 31 137.733 31H139.324C142.506 31 145.344 30.656 147.838 29.882C150.289 29.151 152.224 28.205 153.643 27.087C155.062 25.969 156.223 24.679 157.126 23.174C158.029 21.712 158.631 20.293 158.932 19.046C159.233 17.756 159.405 16.466 159.405 15.219V0.727998H149.171ZM163.907 31H192.287C201.36 31 205.918 28.119 205.918 22.314V21.755C205.918 20.508 205.66 19.39 205.144 18.444C204.671 17.455 203.983 16.681 203.166 16.122C202.349 15.606 201.618 15.176 200.93 14.875C200.242 14.574 199.554 14.316 198.823 14.187C199.339 14.058 199.855 13.843 200.328 13.585C200.844 13.37 201.403 13.026 202.005 12.553C202.65 12.123 203.123 11.521 203.51 10.79C203.854 10.059 204.069 9.199 204.069 8.296V7.737C204.069 5.716 203.166 4.039 201.317 2.749C199.511 1.459 196.415 0.856999 192.029 0.856999H163.907V31ZM174.184 7.221H190.266C192.674 7.221 193.835 7.995 193.835 9.586V9.672C193.835 11.306 192.674 12.123 190.266 12.123H174.184V7.221ZM191.169 18.53C193.878 18.53 195.211 19.433 195.211 21.325V21.454C195.211 22.271 194.91 22.959 194.351 23.518C193.749 24.12 192.674 24.421 191.169 24.421H174.184V18.53H191.169ZM0.935 75H29.315C38.388 75 42.946 72.119 42.946 66.314V65.755C42.946 64.508 42.688 63.39 42.172 62.444C41.699 61.455 41.011 60.681 40.194 60.122C39.377 59.606 38.646 59.176 37.958 58.875C37.27 58.574 36.582 58.316 35.851 58.187C36.367 58.058 36.883 57.843 37.356 57.585C37.872 57.37 38.431 57.026 39.033 56.553C39.678 56.123 40.151 55.521 40.538 54.79C40.882 54.059 41.097 53.199 41.097 52.296V51.737C41.097 49.716 40.194 48.039 38.345 46.749C36.539 45.459 33.443 44.857 29.057 44.857H0.935V75ZM11.212 51.221H27.294C29.702 51.221 30.863 51.995 30.863 53.586V53.672C30.863 55.306 29.702 56.123 27.294 56.123H11.212V51.221ZM28.197 62.53C30.906 62.53 32.239 63.433 32.239 65.325V65.454C32.239 66.271 31.938 66.959 31.379 67.518C30.777 68.12 29.702 68.421 28.197 68.421H11.212V62.53H28.197ZM57.0806 44.986H46.8466V75H57.0806V44.986ZM80.3187 75.559H83.3287C86.5107 75.559 89.3057 75.387 91.6707 74.957C94.0357 74.57 95.8847 74.097 97.2607 73.452C98.6367 72.85 99.7117 72.076 100.529 71.173C101.346 70.227 101.905 69.324 102.163 68.464C102.421 67.604 102.55 66.615 102.55 65.497V64.938C102.55 61.885 101.217 59.692 98.4647 58.273C95.7557 56.854 91.3697 56.08 85.2207 55.994L82.1247 55.951L79.7167 55.908C77.6097 55.865 75.9757 55.736 74.8147 55.478C73.6537 55.177 72.9227 54.876 72.6217 54.575C72.2777 54.231 72.1487 53.844 72.1487 53.328C72.1487 52.769 72.2777 52.339 72.5787 52.038C72.8367 51.737 73.6537 51.436 74.9437 51.135C76.2767 50.877 77.8247 50.748 80.3187 50.748H81.8237C83.4577 50.748 84.4037 50.834 85.6077 51.006C86.8117 51.221 87.7577 51.436 88.3597 51.651C89.0047 51.909 89.4777 52.21 89.8647 52.597C90.2517 52.984 90.5097 53.285 90.5957 53.5C90.6817 53.715 90.7677 54.016 90.8537 54.317H101.518V53.93C101.518 52.941 101.346 52.038 101.002 51.178C100.701 50.361 100.099 49.501 99.2387 48.641C98.3787 47.781 97.2607 47.05 95.8847 46.448C94.5087 45.846 92.7027 45.373 90.3807 44.986C88.1017 44.599 85.4357 44.427 82.4687 44.427H79.4157C76.5347 44.427 73.9977 44.599 71.8477 44.986C69.6547 45.33 67.9347 45.803 66.6447 46.362C65.3547 46.921 64.3227 47.609 63.5487 48.426C62.7317 49.286 62.2157 50.103 61.9577 50.92C61.6997 51.737 61.5707 52.64 61.5707 53.586V53.973C61.5707 59.563 66.9027 62.53 77.5667 62.788L79.9747 62.831L83.1997 62.917C85.6507 62.96 87.4997 63.132 88.7897 63.39C90.0797 63.691 90.9397 64.035 91.2837 64.379C91.6277 64.766 91.7997 65.282 91.7997 65.927C91.7997 66.4 91.7137 66.787 91.4987 67.131C91.2837 67.475 90.8967 67.776 90.2517 68.12C89.6497 68.464 88.6607 68.679 87.3277 68.851C85.9517 69.023 85.0917 69.152 83.0277 69.152H80.6627C74.3847 69.152 72.0627 67.561 71.8477 64.379H61.1407V64.809C61.1407 65.755 61.2267 66.658 61.4417 67.475C61.6567 68.292 62.1727 69.238 62.9467 70.27C63.7207 71.302 64.7957 72.205 66.0857 72.936C67.4187 73.667 69.3107 74.269 71.7617 74.785C74.1697 75.301 77.0507 75.559 80.3187 75.559ZM106.559 75H116.793V63.175H138.766V75H149.043V44.986H138.766V55.908H116.793V44.986H106.559V75ZM161.575 70.012H152.674V75.946H161.575V70.012Z" fill="white"/>
</svg>
